#Comment line ignore any data following # character 
#Hierarchical Translation and Rotation (.htr) file 
[Header]	
#Header keywords are followed by a single value 
FileType HTR		#Single word string
DataType HTRS		#Translation followed by rotation and scale data
FileVersion 1		#integer
NumSegments 84		#integer
NumFrames 2		#integer
DataFrameRate 30		#integer, data frame rate in this file
EulerRotationOrder ZYX
CalibrationUnits mm
RotationUnits Degrees
GlobalAxisofGravity Y
BoneLengthAxis Y
ScaleFactor 1.00
[SegmentNames&Hierarchy]
#CHILD	PARENT
MASTER GLOBAL
root MASTER
chest root
L_mid_tent01 root
R_mid_tent01 root
spine01 root
Bip01_Neck chest
L_humerus chest
R_humerus chest
weapon_bone chest
Bip01_Head Bip01_Neck
eye_left_bone Bip01_Head
eye_right_bone Bip01_Head
L_forearm L_humerus
L_front_hand L_forearm
L_weapon_bone L_forearm
L_front_hand01_01 L_front_hand
L_front_hand02_01 L_front_hand
L_front_hand03_01 L_front_hand
L_front_hand01_02 L_front_hand01_01
L_front_hand02_02 L_front_hand02_01
L_front_hand03_02 L_front_hand03_01
R_forearm R_humerus
R_front_hand R_forearm
R_weapon_bone R_forearm
R_front_hand01_01 R_front_hand
R_front_hand02_01 R_front_hand
R_front_hand03_01 R_front_hand
R_front_hand01_02 R_front_hand01_01
R_front_hand02_02 R_front_hand02_01
R_front_hand03_02 R_front_hand03_01
null_rope01_connect L_mid_tent01
Rope1_Seg01 null_rope01_connect
Rope1_Seg02 Rope1_Seg01
Rope1_Seg03 Rope1_Seg02
Rope1_Seg04 Rope1_Seg03
Rope1_Seg05 Rope1_Seg04
Rope1_Seg06 Rope1_Seg05
Rope1_Seg07 Rope1_Seg06
Rope1_Seg09 Rope1_Seg07
L_mid_hand01 Rope1_Seg09
L_mid_hand02 Rope1_Seg09
L_mid_hand03 Rope1_Seg09
null_rope02_connect R_mid_tent01
Rope2_Seg01 null_rope02_connect
Rope2_Seg02 Rope2_Seg01
Rope2_Seg03 Rope2_Seg02
Rope2_Seg04 Rope2_Seg03
Rope2_Seg05 Rope2_Seg04
Rope2_Seg06 Rope2_Seg05
Rope2_Seg07 Rope2_Seg06
Rope2_Seg09 Rope2_Seg07
R_mid_hand01 Rope2_Seg09
R_mid_hand02 Rope2_Seg09
R_mid_hand03 Rope2_Seg09
spine02 spine01
spine03 spine02
pelvis spine03
null_rope03_connect pelvis
null_rope04_connect pelvis
Rope3_Seg01 null_rope03_connect
Rope3_Seg02 Rope3_Seg01
Rope3_Seg03 Rope3_Seg02
Rope3_Seg04 Rope3_Seg03
Rope3_Seg05 Rope3_Seg04
Rope3_Seg06 Rope3_Seg05
Rope3_Seg07 Rope3_Seg06
Rope3_Seg08 Rope3_Seg07
Rope3_Seg09 Rope3_Seg08
R_rear_hand01 Rope3_Seg09
R_rear_hand02 Rope3_Seg09
R_rear_hand03 Rope3_Seg09
Rope4_Seg01 null_rope04_connect
Rope4_Seg02 Rope4_Seg01
Rope4_Seg03 Rope4_Seg02
Rope4_Seg04 Rope4_Seg03
Rope4_Seg05 Rope4_Seg04
Rope4_Seg06 Rope4_Seg05
Rope4_Seg07 Rope4_Seg06
Rope4_Seg08 Rope4_Seg07
Rope4_Seg09 Rope4_Seg08
L_rear_hand01 Rope4_Seg09
L_rear_hand02 Rope4_Seg09
L_rear_hand03 Rope4_Seg09
[BasePosition]
#SegmentName Tx, Ty, Tz, Rx, Ry, Rz, BoneLength
MASTER 0.000000 0.000000 0.000000 -90.000000 0.000000 0.000000 10.000000 
root 0.000000 0.000000 0.000000 0.000000 0.000000 0.000000 10.000000 
chest 0.000000 0.000000 0.000000 0.000000 0.000000 0.000000 10.000000 
L_mid_tent01 0.000000 0.000000 0.000000 0.000000 0.000000 0.000000 10.000000 
R_mid_tent01 0.000000 0.000000 0.000000 0.000000 0.000000 0.000000 10.000000 
spine01 0.000000 0.000000 0.000000 0.000000 0.000000 0.000000 10.000000 
Bip01_Neck 0.000000 0.000000 0.000000 0.000000 0.000000 0.000000 10.000000 
L_humerus 0.000000 0.000000 0.000000 0.000000 0.000000 0.000000 10.000000 
R_humerus 0.000000 0.000000 0.000000 0.000000 0.000000 0.000000 10.000000 
weapon_bone 0.000000 0.000000 0.000000 0.000000 0.000000 0.000000 10.000000 
Bip01_Head 0.000000 0.000000 0.000000 0.000000 0.000000 0.000000 10.000000 
eye_left_bone 0.000000 0.000000 0.000000 0.000000 0.000000 0.000000 10.000000 
eye_right_bone 0.000000 0.000000 0.000000 0.000000 0.000000 0.000000 10.000000 
L_forearm 0.000000 0.000000 0.000000 0.000000 0.000000 0.000000 10.000000 
L_front_hand 0.000000 0.000000 0.000000 0.000000 0.000000 0.000000 10.000000 
L_weapon_bone 0.000000 0.000000 0.000000 0.000000 0.000000 0.000000 10.000000 
L_front_hand01_01 0.000000 0.000000 0.000000 0.000000 0.000000 0.000000 10.000000 
L_front_hand02_01 0.000000 0.000000 0.000000 0.000000 0.000000 0.000000 10.000000 
L_front_hand03_01 0.000000 0.000000 0.000000 0.000000 0.000000 0.000000 10.000000 
L_front_hand01_02 0.000000 0.000000 0.000000 0.000000 0.000000 0.000000 10.000000 
L_front_hand02_02 0.000000 0.000000 0.000000 0.000000 0.000000 0.000000 10.000000 
L_front_hand03_02 0.000000 0.000000 0.000000 0.000000 0.000000 0.000000 10.000000 
R_forearm 0.000000 0.000000 0.000000 0.000000 0.000000 0.000000 10.000000 
R_front_hand 0.000000 0.000000 0.000000 0.000000 0.000000 0.000000 10.000000 
R_weapon_bone 0.000000 0.000000 0.000000 0.000000 0.000000 0.000000 10.000000 
R_front_hand01_01 0.000000 0.000000 0.000000 0.000000 0.000000 0.000000 10.000000 
R_front_hand02_01 0.000000 0.000000 0.000000 0.000000 0.000000 0.000000 10.000000 
R_front_hand03_01 0.000000 0.000000 0.000000 0.000000 0.000000 0.000000 10.000000 
R_front_hand01_02 0.000000 0.000000 0.000000 0.000000 0.000000 0.000000 10.000000 
R_front_hand02_02 0.000000 0.000000 0.000000 0.000000 0.000000 0.000000 10.000000 
R_front_hand03_02 0.000000 0.000000 0.000000 0.000000 0.000000 0.000000 10.000000 
null_rope01_connect 0.000000 0.000000 0.000000 0.000000 0.000000 0.000000 10.000000 
Rope1_Seg01 0.000000 0.000000 0.000000 0.000000 0.000000 0.000000 10.000000 
Rope1_Seg02 0.000000 0.000000 0.000000 0.000000 0.000000 0.000000 10.000000 
Rope1_Seg03 0.000000 0.000000 0.000000 0.000000 0.000000 0.000000 10.000000 
Rope1_Seg04 0.000000 0.000000 0.000000 0.000000 0.000000 0.000000 10.000000 
Rope1_Seg05 0.000000 0.000000 0.000000 0.000000 0.000000 0.000000 10.000000 
Rope1_Seg06 0.000000 0.000000 0.000000 0.000000 0.000000 0.000000 10.000000 
Rope1_Seg07 0.000000 0.000000 0.000000 0.000000 0.000000 0.000000 10.000000 
Rope1_Seg09 0.000000 0.000000 0.000000 0.000000 0.000000 0.000000 10.000000 
L_mid_hand01 0.000000 0.000000 0.000000 0.000000 0.000000 0.000000 10.000000 
L_mid_hand02 0.000000 0.000000 0.000000 0.000000 0.000000 0.000000 10.000000 
L_mid_hand03 0.000000 0.000000 0.000000 0.000000 0.000000 0.000000 10.000000 
null_rope02_connect 0.000000 0.000000 0.000000 0.000000 0.000000 0.000000 10.000000 
Rope2_Seg01 0.000000 0.000000 0.000000 0.000000 0.000000 0.000000 10.000000 
Rope2_Seg02 0.000000 0.000000 0.000000 0.000000 0.000000 0.000000 10.000000 
Rope2_Seg03 0.000000 0.000000 0.000000 0.000000 0.000000 0.000000 10.000000 
Rope2_Seg04 0.000000 0.000000 0.000000 0.000000 0.000000 0.000000 10.000000 
Rope2_Seg05 0.000000 0.000000 0.000000 0.000000 0.000000 0.000000 10.000000 
Rope2_Seg06 0.000000 0.000000 0.000000 0.000000 0.000000 0.000000 10.000000 
Rope2_Seg07 0.000000 0.000000 0.000000 0.000000 0.000000 0.000000 10.000000 
Rope2_Seg09 0.000000 0.000000 0.000000 0.000000 0.000000 0.000000 10.000000 
R_mid_hand01 0.000000 0.000000 0.000000 0.000000 0.000000 0.000000 10.000000 
R_mid_hand02 0.000000 0.000000 0.000000 0.000000 0.000000 0.000000 10.000000 
R_mid_hand03 0.000000 0.000000 0.000000 0.000000 0.000000 0.000000 10.000000 
spine02 0.000000 0.000000 0.000000 0.000000 0.000000 0.000000 10.000000 
spine03 0.000000 0.000000 0.000000 0.000000 0.000000 0.000000 10.000000 
pelvis 0.000000 0.000000 0.000000 0.000000 0.000000 0.000000 10.000000 
null_rope03_connect 0.000000 0.000000 0.000000 0.000000 0.000000 0.000000 10.000000 
null_rope04_connect 0.000000 0.000000 0.000000 0.000000 0.000000 0.000000 10.000000 
Rope3_Seg01 0.000000 0.000000 0.000000 0.000000 0.000000 0.000000 10.000000 
Rope3_Seg02 0.000000 0.000000 0.000000 0.000000 0.000000 0.000000 10.000000 
Rope3_Seg03 0.000000 0.000000 0.000000 0.000000 0.000000 0.000000 10.000000 
Rope3_Seg04 0.000000 0.000000 0.000000 0.000000 0.000000 0.000000 10.000000 
Rope3_Seg05 0.000000 0.000000 0.000000 0.000000 0.000000 0.000000 10.000000 
Rope3_Seg06 0.000000 0.000000 0.000000 0.000000 0.000000 0.000000 10.000000 
Rope3_Seg07 0.000000 0.000000 0.000000 0.000000 0.000000 0.000000 10.000000 
Rope3_Seg08 0.000000 0.000000 0.000000 0.000000 0.000000 0.000000 10.000000 
Rope3_Seg09 0.000000 0.000000 0.000000 0.000000 0.000000 0.000000 10.000000 
R_rear_hand01 0.000000 0.000000 0.000000 0.000000 0.000000 0.000000 10.000000 
R_rear_hand02 0.000000 0.000000 0.000000 0.000000 0.000000 0.000000 10.000000 
R_rear_hand03 0.000000 0.000000 0.000000 0.000000 0.000000 0.000000 10.000000 
Rope4_Seg01 0.000000 0.000000 0.000000 0.000000 0.000000 0.000000 10.000000 
Rope4_Seg02 0.000000 0.000000 0.000000 0.000000 0.000000 0.000000 10.000000 
Rope4_Seg03 0.000000 0.000000 0.000000 0.000000 0.000000 0.000000 10.000000 
Rope4_Seg04 0.000000 0.000000 0.000000 0.000000 0.000000 0.000000 10.000000 
Rope4_Seg05 0.000000 0.000000 0.000000 0.000000 0.000000 0.000000 10.000000 
Rope4_Seg06 0.000000 0.000000 0.000000 0.000000 0.000000 0.000000 10.000000 
Rope4_Seg07 0.000000 0.000000 0.000000 0.000000 0.000000 0.000000 10.000000 
Rope4_Seg08 0.000000 0.000000 0.000000 0.000000 0.000000 0.000000 10.000000 
Rope4_Seg09 0.000000 0.000000 0.000000 0.000000 0.000000 0.000000 10.000000 
L_rear_hand01 0.000000 0.000000 0.000000 0.000000 0.000000 0.000000 10.000000 
L_rear_hand02 0.000000 0.000000 0.000000 0.000000 0.000000 0.000000 10.000000 
L_rear_hand03 0.000000 0.000000 0.000000 0.000000 0.000000 0.000000 10.000000 
#Beginning of Data. Separated by tabs
#Fr	Tx	Ty	Tz	Rx	Ry	Rz	SF
[MASTER]
5 0.000000 0.000000 0.000000 0.001660 0.001660 0.001660 0.000000
6 0.000000 0.000000 0.000000 0.001660 0.001660 0.001660 0.000000
[root]
5 -4.210984 -29.965466 1309.515259 -103.358696 -17.836323 -76.602348 1309.864746
6 -5.831838 -37.456810 1227.655029 -109.649872 -17.671921 -75.797127 1228.240234
[chest]
5 -84.512650 -34.090519 0.000000 4.150567 -0.442586 -176.577652 91.129311
6 -84.512650 -34.090519 0.000000 4.574372 -0.542981 -175.379272 91.129311
[L_mid_tent01]
5 27.299509 22.177532 -249.918274 0.418353 23.243326 67.979713 252.381165
6 27.299513 22.177525 -249.918274 1.295304 23.653791 68.220406 252.381165
[R_mid_tent01]
5 23.228794 24.509907 226.238495 170.564224 -23.058741 58.841480 228.744751
6 23.228794 24.509907 226.238495 171.328522 -23.076571 58.242554 228.744751
[spine01]
5 -0.361383 -0.195265 0.000000 0.001845 0.001451 13.654368 0.410763
6 -0.361383 -0.195265 0.000000 0.001845 0.001451 13.654368 0.410763
[Bip01_Neck]
5 165.484543 71.581718 0.000119 176.643677 -1.657967 43.431911 180.302734
6 165.484543 71.581718 0.000119 176.643677 -1.657967 43.431911 180.302734
[L_humerus]
5 -13.983130 -135.272980 -120.471481 143.059601 82.696396 -119.483093 181.680161
6 -13.983130 -135.272980 -120.471481 140.392822 82.546280 -122.869118 181.680161
[R_humerus]
5 -13.983309 -135.273102 125.287651 -172.530243 -66.417404 -92.396278 184.909012
6 -13.983309 -135.273102 125.287651 -172.439240 -66.725060 -92.491844 184.909012
[weapon_bone]
5 235.964890 -300.705902 0.000000 0.000000 -89.951546 -128.212341 382.234833
6 235.964890 -300.705902 0.000000 0.000000 -89.951546 -128.212341 382.234833
[Bip01_Head]
5 213.655914 185.285034 17.334286 4.440710 -1.340241 -43.897930 283.337006
6 213.634720 185.422165 15.563812 4.443096 -1.200347 -43.902607 283.307983
[eye_left_bone]
5 -24.626970 125.451866 -64.772606 0.000000 -90.000000 -99.840431 143.318359
6 -24.626970 125.451866 -64.772606 0.000000 -90.000000 -99.840431 143.318359
[eye_right_bone]
5 -24.626970 125.451866 64.327362 0.000000 -89.965736 80.156380 143.117676
6 -24.626970 125.451866 64.327362 0.000000 -89.965736 80.156380 143.117676
[L_forearm]
5 322.776093 0.000000 -0.000119 0.000103 -0.002345 -95.052048 322.776093
6 322.776093 0.000000 -0.000119 0.000141 -0.002343 -96.909126 322.776093
[L_front_hand]
5 241.149185 -0.042021 -3.300071 -178.667953 -1.835447 -27.422350 241.171753
6 241.149185 -0.042021 -3.300071 -178.667953 -1.835447 -27.422350 241.171753
[L_weapon_bone]
5 156.183838 0.000000 0.000000 0.000014 0.000007 0.000001 156.183838
6 156.183838 0.000000 0.000000 0.000014 0.000007 0.000001 156.183838
[L_front_hand01_01]
5 86.095154 20.947098 -0.655860 -0.274633 -0.532782 65.272827 88.609184
6 86.095154 20.947098 -0.655860 -0.282467 -0.528169 66.067474 88.609184
[L_front_hand02_01]
5 86.935165 -11.437475 24.513514 141.090271 -54.445614 -45.572052 91.046425
6 86.935165 -11.437475 24.513514 141.960785 -54.937954 -46.642345 91.046425
[L_front_hand03_01]
5 86.637497 -14.123976 -20.424902 -141.476303 52.677540 -47.637547 90.126129
6 86.637497 -14.123976 -20.424902 -142.303543 53.163303 -48.671032 90.126129
[L_front_hand01_02]
5 71.020905 -0.000179 0.000030 0.000315 -0.002326 -105.400543 71.020905
6 71.020905 -0.000179 0.000030 0.000315 -0.002326 -105.431618 71.020905
[L_front_hand02_02]
5 71.020927 -0.000119 0.000060 0.000315 -0.002326 -105.400543 71.020927
6 71.020927 -0.000119 0.000060 0.000315 -0.002326 -105.431618 71.020927
[L_front_hand03_02]
5 71.020905 -0.000060 0.000060 0.000315 -0.002326 -105.400543 71.020905
6 71.020905 -0.000060 0.000060 0.000315 -0.002326 -105.431618 71.020905
[R_forearm]
5 322.776428 -0.000060 0.000030 0.213302 0.003441 -91.231186 322.776428
6 322.776428 -0.000060 0.000030 0.213222 0.006790 -93.030548 322.776428
[R_front_hand]
5 238.847015 -0.006795 2.210259 -2.635298 -10.645461 -26.312506 238.857239
6 238.847015 -0.006795 2.210259 -2.635298 -10.645461 -26.312506 238.857239
[R_weapon_bone]
5 155.664093 0.002503 -0.000030 0.003487 0.001180 -90.988930 155.664078
6 155.664093 0.002503 -0.000030 0.003487 0.001180 -90.988930 155.664078
[R_front_hand01_01]
5 87.624611 14.231146 22.918642 -138.456909 -52.798618 42.405617 91.683487
6 87.624611 14.231146 22.918642 -139.165222 -53.267780 43.295258 91.683487
[R_front_hand02_01]
5 89.356956 14.367283 -19.491137 139.300415 51.240429 45.105949 92.579636
6 89.356956 14.367283 -19.491137 139.980438 51.699215 45.970734 92.579636
[R_front_hand03_01]
5 87.286232 -22.307278 -0.143439 0.064051 -0.451784 -62.968155 90.091743
6 87.286232 -22.307278 -0.143439 0.071045 -0.448771 -63.677063 90.091743
[R_front_hand01_02]
5 71.020905 0.000060 0.000119 0.002323 -0.000334 106.381714 71.020905
6 71.020905 0.000060 0.000119 0.002323 -0.000334 106.381714 71.020905
[R_front_hand02_02]
5 71.020844 -0.000030 -0.000119 0.002323 -0.000334 106.381714 71.020836
6 71.020844 -0.000030 -0.000119 0.002323 -0.000334 106.381714 71.020836
[R_front_hand03_02]
5 71.020905 0.000000 0.000030 0.002323 -0.000334 106.381714 71.020905
6 71.020905 0.000000 0.000030 0.002323 -0.000334 106.381714 71.020905
[null_rope01_connect]
5 328.732483 0.000000 -0.000238 -165.815872 -59.574104 -149.555603 328.732483
6 328.732483 0.000000 -0.000238 -163.650742 -53.661247 -150.263290 328.732483
[Rope1_Seg01]
5 0.000000 0.000000 0.000000 60.643795 -43.736336 -132.799347 0.000000
6 0.000000 0.000000 0.000000 56.362583 -50.040752 -128.671234 0.000000
[Rope1_Seg02]
5 139.999863 -0.000179 0.000000 2.157763 -1.498726 -5.802144 139.999863
6 139.999863 -0.000179 0.000000 1.562242 -1.791170 -5.426617 139.999863
[Rope1_Seg03]
5 139.999924 0.000060 -0.000060 7.535243 -4.253294 -14.465055 139.999924
6 139.999924 0.000060 -0.000060 5.479484 -4.751453 -13.372111 139.999924
[Rope1_Seg04]
5 139.999924 -0.000060 -0.000119 55.300842 -16.141123 -57.612358 139.999924
6 139.999924 -0.000060 -0.000119 46.816502 -17.906092 -57.499496 139.999924
[Rope1_Seg05]
5 139.999832 0.000119 -0.000060 20.524788 -35.741268 -11.494729 139.999832
6 139.999832 0.000119 -0.000060 24.746386 -34.589687 -20.148661 139.999832
[Rope1_Seg06]
5 139.999954 0.000119 -0.000060 -1.438577 -13.020945 13.567765 139.999954
6 139.999954 0.000119 -0.000060 -0.543085 -12.625029 9.686522 139.999954
[Rope1_Seg07]
5 139.999985 0.000060 0.000000 -1.074281 -10.425144 6.335637 139.999985
6 139.999985 0.000060 0.000000 -0.866408 -11.349060 5.527184 139.999985
[Rope1_Seg09]
5 121.602913 0.000119 -0.000089 -89.793175 -1.359789 0.847147 121.602913
6 121.602913 0.000119 -0.000089 -89.793175 -1.359789 0.847147 121.602913
[L_mid_hand01]
5 103.859421 1.038730 8.195221 109.056190 -40.604694 -13.201403 104.187431
6 103.859421 1.038730 8.195221 109.056213 -40.604710 -13.201403 104.187431
[L_mid_hand02]
5 105.572853 -4.139662 -10.864139 -146.713593 31.476528 -37.902313 106.211075
6 105.572853 -4.139662 -10.864139 -146.713593 31.476528 -37.902313 106.211075
[L_mid_hand03]
5 104.641464 17.579376 -3.913581 -14.267231 12.322313 43.898392 106.179977
6 104.641464 17.579376 -3.913581 -14.267233 12.322314 43.898392 106.179977
[null_rope02_connect]
5 328.732849 0.000179 -0.000119 -81.983696 56.846077 48.913189 328.732849
6 328.732849 0.000179 -0.000119 -72.009857 57.079327 58.902588 328.732849
[Rope2_Seg01]
5 0.000076 0.000110 0.000153 -39.667377 10.011731 -21.861521 0.000203
6 0.000076 0.000110 0.000153 -66.242172 25.370764 0.333957 0.000203
[Rope2_Seg02]
5 139.999741 -0.000060 -0.000119 -44.902653 -6.703686 71.867767 139.999756
6 139.999741 -0.000060 -0.000119 -24.720272 -32.009060 49.415112 139.999756
[Rope2_Seg03]
5 140.000107 0.000030 0.000000 -1.379918 -15.548839 12.242824 140.000107
6 140.000107 0.000030 0.000000 -0.182462 -9.811521 7.408703 140.000107
[Rope2_Seg04]
5 139.999802 0.000000 -0.000060 0.746291 -0.252864 3.373536 139.999802
6 139.999802 0.000000 -0.000060 0.747325 1.461326 2.222275 139.999802
[Rope2_Seg05]
5 139.999985 -0.000060 0.000119 1.214998 5.519529 2.873079 139.999985
6 139.999985 -0.000060 0.000119 0.904485 7.232680 1.268040 139.999985
[Rope2_Seg06]
5 139.999893 -0.000030 -0.000119 1.075276 7.624732 3.459352 139.999893
6 139.999893 -0.000030 -0.000119 0.455698 5.864340 1.515662 139.999893
[Rope2_Seg07]
5 139.999893 0.000060 -0.000060 0.394839 4.400200 3.145212 139.999893
6 139.999893 0.000060 -0.000060 0.128838 3.789423 1.450893 139.999893
[Rope2_Seg09]
5 121.338966 0.000089 -0.000060 33.793236 -1.359788 -0.847141 121.338966
6 121.338966 0.000089 -0.000060 33.793236 -1.359788 -0.847141 121.338966
[R_mid_hand01]
5 104.680779 11.144459 -10.335981 -34.514385 34.853703 42.458717 105.778534
6 104.680779 11.144459 -10.335981 -35.659065 33.675755 40.429829 105.778534
[R_mid_hand02]
5 104.070427 2.443552 8.231699 68.611877 -47.139290 16.550774 104.424065
6 104.070427 2.443552 8.231699 69.379761 -45.224785 15.491559 104.424065
[R_mid_hand03]
5 106.028137 -11.221827 -5.996406 -171.008881 13.064260 -52.295338 106.788818
6 106.028137 -11.221827 -5.996406 -170.548004 12.734509 -50.222614 106.788818
[spine02]
5 129.756927 0.001550 0.000119 -1.023899 -3.926965 6.770993 129.756927
6 129.756927 0.001550 0.000119 -1.023899 -3.926965 6.770993 129.756927
[spine03]
5 78.613846 0.087372 -4.898873 1.040681 4.146420 4.212376 78.766380
6 78.613846 0.087372 -4.898873 1.040681 4.146420 4.212376 78.766380
[pelvis]
5 169.435242 0.051022 0.000000 0.019518 -0.190233 -10.721436 169.435257
6 169.435242 0.051022 0.000000 0.019518 -0.190233 -10.721436 169.435257
[null_rope03_connect]
5 -1.257226 -2.466202 137.391083 145.438705 -74.144531 -49.904812 137.418976
6 -1.257226 -2.466202 137.391083 158.156143 -69.486717 -61.944668 137.418976
[null_rope04_connect]
5 -1.259640 -2.480268 -137.844437 145.438705 -74.144531 -49.904812 137.872513
6 -1.259640 -2.480268 -137.844437 158.156143 -69.486717 -61.944668 137.872513
[Rope3_Seg01]
5 0.000000 0.000000 0.000000 -155.911011 -34.381950 -37.797714 0.000000
6 0.000000 0.000000 0.000000 -153.181000 -28.388865 -32.990444 0.000000
[Rope3_Seg02]
5 139.999924 -0.000119 0.000060 33.737045 -29.281960 -7.027833 139.999924
6 139.999924 -0.000119 0.000060 34.756481 -29.011133 1.681647 139.999924
[Rope3_Seg03]
5 139.999924 -0.000119 0.000119 33.271759 -22.940496 15.159054 139.999924
6 139.999924 -0.000119 0.000119 24.524858 -20.114561 22.955622 139.999924
[Rope3_Seg04]
5 139.999924 0.000119 0.000000 20.171572 -17.455715 16.642118 139.999924
6 139.999924 0.000119 0.000000 10.591703 -11.751313 20.129669 139.999924
[Rope3_Seg05]
5 139.999924 -0.000238 0.000060 14.773519 -21.043839 28.390278 139.999924
6 139.999924 -0.000238 0.000060 5.371896 -17.447128 29.124474 139.999924
[Rope3_Seg06]
5 139.999893 -0.000119 -0.000060 3.615343 -4.064493 14.199975 139.999893
6 139.999893 -0.000119 -0.000060 0.775159 -5.780466 15.065555 139.999893
[Rope3_Seg07]
5 139.999771 0.000060 -0.000119 1.397520 -1.327224 6.969148 139.999771
6 139.999771 0.000060 -0.000119 0.139999 -2.321274 7.106850 139.999771
[Rope3_Seg08]
5 139.999985 -0.000060 0.000000 0.843191 -0.604486 3.692433 139.999985
6 139.999985 -0.000060 0.000000 0.190104 -1.202050 3.734534 139.999985
[Rope3_Seg09]
5 90.185997 -0.000179 -0.000060 89.793228 -1.359877 -0.847183 90.185997
6 90.185997 -0.000179 -0.000060 89.793228 -1.359877 -0.847183 90.185997
[R_rear_hand01]
5 103.366196 -6.073594 -10.757982 -166.071487 20.559359 -44.173782 104.101845
6 103.366196 -6.073594 -10.757982 -165.364609 20.073744 -42.141060 104.101845
[R_rear_hand02]
5 100.509819 12.039542 -7.992327 -29.245224 26.638000 41.706207 101.543350
6 100.509819 12.039542 -7.992327 -30.084066 25.665678 39.802120 101.543350
[R_rear_hand03]
5 101.539970 5.215704 5.435467 81.983536 -44.720295 9.521895 101.819031
6 101.539970 5.215704 5.435467 82.244080 -42.772614 9.150361 101.819031
[Rope4_Seg01]
5 -0.000014 -0.000070 -0.000126 42.999420 -21.501549 -83.768379 0.000145
6 -0.000013 -0.000068 -0.000119 45.358463 -28.074583 -90.449707 0.000138
[Rope4_Seg02]
5 139.999985 0.000060 0.000119 1.989057 -32.115002 -3.469013 139.999985
6 139.999985 0.000060 0.000119 3.067950 -30.163799 -2.347037 139.999985
[Rope4_Seg03]
5 139.999924 0.000000 -0.000238 9.645915 -29.652952 -0.714428 139.999924
6 139.999924 0.000000 -0.000238 11.006525 -26.650440 1.558651 139.999924
[Rope4_Seg04]
5 139.999985 0.000000 0.000119 10.771350 -13.563916 2.069009 139.999985
6 139.999985 0.000000 0.000119 12.173056 -12.774652 3.349404 139.999985
[Rope4_Seg05]
5 139.999802 -0.000060 -0.000119 8.078456 -9.856560 -0.501985 139.999802
6 139.999802 -0.000060 -0.000119 6.188538 -9.094554 -1.146840 139.999802
[Rope4_Seg06]
5 139.999924 0.000000 0.000060 18.383867 -12.861024 -1.533540 139.999924
6 139.999924 0.000000 0.000060 6.420386 -11.539870 -3.934086 139.999924
[Rope4_Seg07]
5 139.999802 0.000000 0.000000 57.841846 -10.142469 3.002325 139.999802
6 139.999802 0.000000 0.000000 47.979809 -9.467423 -0.766223 139.999802
[Rope4_Seg08]
5 139.999924 0.000000 0.000119 33.479355 -1.567422 6.517664 139.999924
6 139.999924 0.000000 0.000119 67.318237 -4.297497 4.438025 139.999924
[Rope4_Seg09]
5 90.185791 0.000060 0.000060 -135.617828 2.228885 0.850567 90.185791
6 90.185791 0.000060 0.000060 -135.617828 2.228885 0.850567 90.185791
[L_rear_hand01]
5 101.696655 -8.392275 -7.654577 -31.684452 -23.583008 144.025742 102.329041
6 101.696655 -8.392275 -7.654577 -31.684452 -23.583008 144.025742 102.329041
[L_rear_hand02]
5 102.726799 -1.568258 5.773216 82.701569 38.753956 171.553619 102.900848
6 102.726799 -1.568258 5.773216 82.701553 38.753956 171.553619 102.900848
[L_rear_hand03]
5 104.552910 9.721220 -10.420293 -163.975403 -19.004421 -142.009338 105.519653
6 104.552910 9.721220 -10.420293 -163.975388 -19.004423 -142.009338 105.519653
